<svg id="レイヤー_1" data-name="レイヤー 1" xmlns="http://www.w3.org/2000/svg" viewBox="0 0 23.46 23.46"><defs><style>.cls-1{fill:#231815;}</style></defs><title>アートボード 2</title><path class="cls-1" d="M14.45,22.82H4.73A4.09,4.09,0,0,1,.64,18.73V9A4.09,4.09,0,0,1,4.73,4.92H8.81a1.17,1.17,0,0,1,0,2.34H4.73A1.75,1.75,0,0,0,3,9v9.72a1.75,1.75,0,0,0,1.75,1.75h9.72a1.75,1.75,0,0,0,1.76-1.75V13.87a1.17,1.17,0,1,1,2.33,0v4.86A4.09,4.09,0,0,1,14.45,22.82Z"/><path class="cls-1" d="M9.59,15a1.17,1.17,0,0,1-.82-2L20.6,1.21a1.17,1.17,0,0,1,1.66,1.65L10.42,14.7A1.21,1.21,0,0,1,9.59,15Z"/><path class="cls-1" d="M21.65,13.09a1.17,1.17,0,0,1-1.17-1.16V3H11.54a1.17,1.17,0,0,1,0-2.34H21.65a1.17,1.17,0,0,1,1.17,1.17V11.93A1.16,1.16,0,0,1,21.65,13.09Z"/></svg>