<svg width="85" height="14" viewBox="0 0 85 14" fill="none" xmlns="http://www.w3.org/2000/svg">
<path d="M71.3203 11.2V13.5" stroke="white" stroke-width="0.7" stroke-miterlimit="10"/>
<path d="M84.5391 11.2V13.5" stroke="white" stroke-width="0.7" stroke-miterlimit="10"/>
<path d="M71.1992 13.15H84.5392" stroke="white" stroke-width="0.7" stroke-miterlimit="10"/>
<path d="M77.8691 0V9.57" stroke="white" stroke-width="0.75" stroke-miterlimit="10"/>
<path d="M80.8608 7.39001L78.0508 9.86001" stroke="white" stroke-width="0.75" stroke-miterlimit="10"/>
<path d="M74.8809 7.39001L77.7009 9.86001" stroke="white" stroke-width="0.75" stroke-miterlimit="10"/>
<path d="M78.4204 10.04L77.9204 10.54L77.4004 10.1L77.8804 9.59998L78.4204 10.04Z" fill="white"/>
<path d="M4.68 11.67H0L0.24 10.67V4.23002L0 3.27002H4.68L6.36 5.00002V10L4.68 11.67ZM4.44 5.61002L4.14 5.00002L3.54 4.70002H2.22L2.1 4.82002V9.92002L2.28 10.1H3.54L4.14 9.80002L4.44 9.20002V5.61002Z" fill="white"/>
<path d="M12.9993 11.67H9.8393L8.2793 10.11V4.83002L9.8393 3.27002H12.9993L14.5593 4.83002V10.11L12.9993 11.67ZM12.5993 5.43002L12.3593 5.00002L11.8793 4.76002H10.8793L10.4393 5.00002L10.1993 5.48002V9.48002L10.4393 9.96002L10.9193 10.2H11.9193L12.3993 9.96002L12.6393 9.48002L12.5993 5.43002Z" fill="white"/>
<path d="M25.3808 4.22998L23.2208 11.67H22.0008L20.6608 6.66998L20.6008 6.24998L20.5408 6.66998L19.2008 11.67H17.9408L15.7808 4.22998L15.3008 3.22998H17.7008L17.5808 4.22998L18.5808 7.58998L18.6408 8.06998L18.7008 7.58998L19.9008 3.26998H21.4608L22.6608 7.58998L22.7208 8.06998L22.7808 7.58998L23.7808 4.22998L23.6608 3.22998H25.9408L25.3808 4.22998Z" fill="white"/>
<path d="M32.7591 4.22998V11.67H31.1991L28.6191 6.50998L28.3791 5.90998L28.4391 6.50998V10.71L28.6791 11.71H26.6791L26.9191 10.71V4.22998L26.6191 3.22998H28.9591L30.9991 7.46998L31.2391 8.06998L31.1791 7.46998V4.22998L30.9391 3.22998H32.9391L32.7591 4.22998Z" fill="white"/>
<path d="M39.5999 11.67H34.9199L35.1599 10.67V4.22998L34.9199 3.22998H37.2599L36.9999 4.46998V9.92998L37.1799 10.11H38.9999L40.2599 9.68998L39.5999 11.67Z" fill="white"/>
<path d="M45.5999 11.67H42.4799L40.9199 10.11V4.83002L42.4799 3.27002H45.5999L47.1599 4.83002V10.11L45.5999 11.67ZM45.2399 5.43002L44.9999 5.00002L44.5199 4.76002H43.5199L43.0799 5.00002L42.8399 5.48002V9.48002L43.0799 9.96002L43.5599 10.2H44.5599L44.9999 9.87002L45.2399 9.39002V5.43002Z" fill="white"/>
<path d="M53.0991 11.67L53.2191 10.67L52.9791 9.66998L52.8591 9.54998H50.5791L50.4591 9.66998L50.2191 10.67L50.3391 11.67H48.1191L48.5991 10.67L50.3991 4.00998L50.2191 3.22998H53.4591L53.2791 4.00998L55.0791 10.67L55.5591 11.67H53.0991ZM51.7791 4.82998L51.7191 4.46998L51.6591 4.82998L50.8791 8.06998L50.9991 8.18998H52.4391L52.5591 8.06998L51.7791 4.82998Z" fill="white"/>
<path d="M61.1995 11.67H56.5195L56.7595 10.67V4.22998L56.5195 3.22998H61.1995L62.8795 4.99998V9.99998L61.1995 11.67ZM60.9995 5.60998L60.6995 5.00998L60.0995 4.70998H58.7395L58.6195 4.82998V9.92998L58.7995 10.11H60.0595L60.6595 9.80998L60.9595 9.20998L60.9995 5.60998Z" fill="white"/>
</svg>
