<?xml version="1.0" encoding="utf-8"?>
<!-- Generator: Adobe Illustrator 24.0.3, SVG Export Plug-In . SVG Version: 6.00 Build 0)  -->
<svg version="1.1" id="图层_1" xmlns="http://www.w3.org/2000/svg" xmlns:xlink="http://www.w3.org/1999/xlink" x="0px" y="0px"
	 viewBox="0 0 525 131.46" style="enable-background:new 0 0 525 131.46;" xml:space="preserve">
<style type="text/css">
	.st0{fill:#666464;}
</style>
<g>
	<path d="M32.3,14.99c-1.53,0-2.52,0.03-3.63,0.18v-3.3c1.05,0.15,2.16,0.21,3.84,0.21h7.92c-0.03-1.23-0.06-1.74-0.21-2.7h3.66
		c-0.15,0.93-0.18,1.56-0.18,2.7h8.19c1.86,0,3-0.06,3.93-0.21v3.3c-0.99-0.12-2.25-0.18-3.72-0.18h-8.4v1.68h6.27
		c1.83,0,2.4-0.03,3.33-0.12c-0.09,0.9-0.12,1.89-0.12,3.03v5.55c0,1.68,0,1.68,0.12,3.06c-0.87-0.12-1.71-0.15-3.36-0.15h-3.6
		c2.67,2.52,5.85,4.08,10.41,5.13c-0.78,1.2-1.05,1.74-1.71,3.18c-2.43-0.81-4.23-1.62-6.15-2.73c-2.22-1.32-3.63-2.46-5.25-4.32
		c0.03,0.99,0.06,1.56,0.06,2.07v2.16c0,1.53,0.03,2.4,0.21,3.42h-3.69c0.15-1.17,0.21-2.04,0.21-3.42v-2.16
		c0-0.36,0.03-1.47,0.06-2.04c-1.53,1.89-3.36,3.39-5.73,4.74c-1.44,0.84-3.33,1.68-5.13,2.31c-0.66-1.5-0.93-2.01-1.68-3.03
		c2.25-0.63,3.81-1.23,5.64-2.22c1.83-0.99,3.27-2.04,4.29-3.09h-3.24c-1.86,0-2.46,0.03-3.39,0.15c0-0.3,0-0.3,0.09-0.87
		c0-0.12,0-0.12,0.03-2.19v-5.52c0-1.56-0.03-2.04-0.12-3.09c0.81,0.12,1.53,0.15,3.27,0.15h5.91v-1.68H32.3z M34.55,19.25v1.83
		h5.88v-1.83H34.55z M34.55,23.57v1.89h5.88v-1.89H34.55z M43.7,21.08H50v-1.83h-6.3V21.08z M43.7,25.46H50v-1.89h-6.3V25.46z"/>
	<path d="M69.17,28.31c-2.28,3.6-3.78,5.16-7.23,7.74c-0.69-1.14-1.17-1.74-2.13-2.61c1.95-1.2,2.79-1.86,3.93-3.03
		c1.11-1.14,1.68-1.95,2.64-3.69L69.17,28.31z M71.78,11.6c0-0.81-0.06-1.5-0.18-2.19h3.72c-0.12,0.6-0.18,1.26-0.18,2.16v0.9h8.58
		c1.56,0,2.58-0.06,3.51-0.21v3.39c-0.84-0.15-1.65-0.18-3.3-0.18H63.56c-1.62,0-2.37,0.03-3.24,0.18v-3.39
		c0.87,0.15,1.98,0.21,3.6,0.21h7.86V11.6z M66.38,26.21c-1.32,0-1.89,0.03-2.7,0.09c0.09-0.75,0.12-1.32,0.12-2.37v-4.29
		c0-1.02-0.03-1.56-0.03-1.62c0-0.03-0.03-0.18-0.06-0.42c0-0.09,0-0.21-0.03-0.39c0.24,0.03,0.24,0.03,0.72,0.06
		c0.27,0.03,1.23,0.06,1.98,0.06h14.43c2.07-0.03,2.07-0.03,2.73-0.12c-0.09,0.72-0.12,1.35-0.12,2.43v4.29
		c0,1.05,0.03,1.56,0.09,2.37c-0.69-0.06-1.56-0.09-2.73-0.09h-5.25v7.5c0,2.31-0.99,2.97-4.53,2.97c-0.48,0-0.78,0-2.43-0.03
		c-0.15-1.32-0.36-2.1-0.87-3.21c1.26,0.18,2.22,0.27,3.27,0.27c1.02,0,1.23-0.12,1.23-0.63v-6.87H66.38z M66.98,23.24h13.26v-3.09
		H66.98V23.24z M80.54,26.75c1.14,1.74,1.77,2.49,2.97,3.57c1.23,1.14,2.16,1.77,4.14,2.85c-0.93,0.96-1.47,1.71-2.13,2.88
		c-2.07-1.41-2.94-2.16-4.47-3.72c-1.23-1.32-1.86-2.1-3.12-3.9L80.54,26.75z"/>
	<path d="M94.85,20.96c-1.53,0-2.31,0.03-3.18,0.18v-3.15c0.84,0.15,1.56,0.18,3.18,0.18h2.43v-2.88h-1.56
		c-1.23,0-1.95,0.03-2.82,0.15v-3.09c0.81,0.12,1.41,0.15,2.82,0.15h1.56v-0.72c0-0.93-0.06-1.62-0.15-2.43h3.48
		c-0.15,0.69-0.18,1.35-0.18,2.43v0.72h0.63c1.05,0,1.53-0.03,2.16-0.15v2.31c1.02-1.77,1.62-3.06,1.95-4.11l2.67,1.59
		c-0.03-0.9-0.03-1.17-0.12-1.92c0.81,0.06,1.41,0.09,2.64,0.09h4.8c1.26,0,1.83-0.03,2.46-0.15l1.41,2.07
		c-0.27,0.6-0.3,0.66-0.48,1.2c-0.18,0.42-1.02,2.46-1.35,3.27c-0.06,0.15-0.36,0.81-0.84,1.86c-0.18,0.42-0.48,1.08-0.84,1.95
		c1.38,1.74,1.92,2.61,2.55,4.11c0.57,1.35,0.84,2.61,0.84,3.78c0,2.28-0.81,3.75-2.43,4.38c-0.93,0.39-1.77,0.48-4.08,0.48
		c-0.12-1.68-0.27-2.31-0.81-3.33c0.93,0.06,1.23,0.09,1.59,0.09c1.71,0,2.4-0.48,2.4-1.65c0-0.99-0.15-2.04-0.42-2.91
		c-0.57-1.77-1.35-3.03-3-4.68c1.32-2.55,2.28-4.95,3.09-7.59h-4.23v19.86c0,1.62,0.06,3,0.18,4.08h-3.54
		c0.12-0.84,0.18-2.1,0.18-4.14V12.56c-0.24,0.39-0.27,0.45-0.51,0.9c-0.96,1.77-2.04,3.42-3.06,4.74h0.27
		c0.93,0,1.74-0.06,2.43-0.15v3.03c-0.78-0.09-1.59-0.12-2.91-0.12h-2.16c-0.9,0.99-1.41,1.5-2.22,2.25h3.54
		c1.17,0,1.83-0.03,2.46-0.12c-0.06,0.81-0.09,1.41-0.09,3.21v7.14c0,1.38,0.03,2.28,0.12,3.09h-3.15v-1.05h-5.07v1.56h-3.24
		c0.12-0.75,0.18-1.83,0.18-3.33V27.5c-0.72,0.54-1.11,0.78-2.07,1.41c-0.51-1.35-0.87-1.98-1.68-2.91
		c2.61-1.26,4.95-2.88,7.32-5.04H94.85z M97.46,28.01h5.1v-2.34h-5.1V28.01z M97.46,32.9h5.1v-2.46h-5.1V32.9z M100.7,18.17
		c0.9-1.05,1.62-2.01,2.13-2.82c-0.54-0.06-0.87-0.06-1.41-0.06h-0.96v2.88H100.7z"/>
	<path d="M137.63,32.33c1.83-3.81,4.14-11.25,4.5-14.37l3.87,1.11c-0.33,0.63-0.36,0.81-1.02,2.88c-1.08,3.6-2.67,7.83-3.84,10.38
		h5.4c1.53,0,2.79-0.06,3.81-0.18v3.6c-1.05-0.15-2.22-0.21-3.81-0.21h-19.56c-1.59,0-2.91,0.06-3.9,0.21v-3.6
		c1.05,0.12,2.28,0.18,3.9,0.18H137.63z M134.78,11.87c0-0.87-0.06-1.5-0.21-2.34h3.78c-0.15,0.72-0.21,1.47-0.21,2.31v2.04h7.23
		c1.62,0,2.94-0.06,3.87-0.21v3.6c-0.99-0.12-2.31-0.18-3.87-0.18h-17.43c-1.5,0-2.82,0.06-3.78,0.18v-3.6
		c0.9,0.15,2.16,0.21,3.78,0.21h6.84V11.87z M130.91,18.23c1.32,3.6,2.04,6,3.42,11.67l-3.36,1.2c-0.78-4.26-1.86-8.16-3.3-11.73
		L130.91,18.23z"/>
	<path d="M169.91,19.85c0.75,2.7,2.34,5.61,4.32,7.86c2.22,2.52,4.71,4.23,8.28,5.7c-1.02,1.2-1.44,1.83-2.19,3.45
		c-3.21-1.65-5.28-3.18-7.41-5.49c-1.95-2.07-3.42-4.47-4.53-7.26c-0.9,3.09-2.49,5.67-4.89,8.04c-2.04,2.01-4.2,3.42-7.17,4.71
		c-0.51-1.14-1.14-2.07-2.1-3.15c2.16-0.87,3.36-1.5,4.86-2.55c4.02-2.85,6.03-6.21,6.75-11.31h-7.08c-1.89,0-2.76,0.06-3.75,0.21
		v-3.81c0.93,0.15,2.01,0.21,3.78,0.21h7.35c0.06-1.5,0.09-1.98,0.09-3.54c0-1.26-0.09-2.16-0.21-3h3.96
		c-0.15,1.05-0.18,1.5-0.21,3.51c0,1.23-0.03,1.92-0.06,3.03h7.95c1.71,0,2.76-0.06,3.78-0.21v3.81c-1.2-0.15-2.1-0.21-3.75-0.21
		H169.91z"/>
	<path d="M190.04,28.82c-1.56,0-2.73,0.06-3.66,0.18v-3.33c1.02,0.15,2.22,0.21,3.63,0.21h8.16v-0.21c0-0.6-0.03-1.14-0.09-1.65
		h1.29c1.29-0.66,2.28-1.32,3.54-2.43h-8.25c-1.23,0-2.04,0.03-3,0.12v-3c0.9,0.12,1.74,0.15,3.03,0.15h9.93
		c1.17,0,1.74-0.03,2.28-0.12l1.65,1.83c-0.51,0.42-0.51,0.42-1.08,0.9c-2.13,1.83-3.66,2.94-6,4.38v0.03h7.83
		c1.47,0,2.79-0.06,3.69-0.21V29c-0.87-0.12-2.16-0.18-3.72-0.18h-7.8v5.25c0,1.05-0.09,1.47-0.39,1.89
		c-0.51,0.75-1.53,0.99-4.23,0.99c-0.39,0-1.38-0.03-2.94-0.12c-0.33-1.59-0.48-2.1-0.99-3.18c1.44,0.21,2.79,0.3,3.72,0.3
		c1.32,0,1.53-0.09,1.53-0.69v-4.44H190.04z M191.57,14c-0.69-1.32-1.08-1.92-2.25-3.39l3.03-0.9c1.05,1.29,1.74,2.37,2.73,4.29
		h3.18c-0.51-1.41-0.99-2.46-1.83-3.78l3.12-0.87c1.23,2.31,1.41,2.73,2.07,4.65h2.55c0.9-1.2,1.95-3.09,2.46-4.5l3.24,0.9
		c-0.69,1.29-1.56,2.67-2.25,3.6h1.35c2.04,0,2.61-0.03,3.69-0.12c-0.09,0.75-0.12,1.35-0.12,2.49v2.79c0,0.81,0.06,1.56,0.15,2.28
		h-3.27v-4.65h-19.56v4.65h-3.27c0.12-0.69,0.15-1.38,0.15-2.31v-2.76c0-1.08-0.03-1.71-0.12-2.49c1.35,0.12,1.53,0.12,3.54,0.12
		H191.57z"/>
	<path d="M52.79,53.65c-0.51,0.45-0.66,0.57-1.11,1.05c-2.25,2.34-4.5,4.29-7.08,6.18v12.81c0,1.65,0.03,2.52,0.15,3.33h-4.2
		c0.15-0.87,0.18-1.47,0.18-3.24V63.22c-3.51,2.1-5.19,2.88-10.71,4.86c-0.63-1.56-0.96-2.07-2.01-3.42
		c5.94-1.62,10.98-4.11,15.75-7.8c2.67-2.07,4.71-4.14,5.58-5.61L52.79,53.65z"/>
	<path d="M58.28,72.01c2.58-0.15,6.15-1.02,8.88-2.22c3.75-1.62,6.54-3.93,8.91-7.35c1.32-1.92,2.16-3.57,3.06-6
		c1.17,1.41,1.65,1.86,3.18,2.94c-2.55,5.49-5.4,9.03-9.51,11.76c-3.06,2.04-6.78,3.51-11.43,4.5c-1.2,0.24-1.29,0.27-1.98,0.51
		L58.28,72.01z M60.83,53.38c3.57,2.22,5.43,3.6,7.74,5.79l-2.58,3.27c-2.4-2.55-4.86-4.53-7.65-6.09L60.83,53.38z"/>
	<path d="M109.73,56.71c-0.36,0.48-0.48,0.75-0.93,2.01c-3.57,9.81-8.22,14.97-17.28,19.17c-0.9-1.53-1.44-2.22-2.49-3.12
		c4.5-1.74,8.37-4.32,10.77-7.17c-1.83-1.59-4.26-3.27-6.15-4.26l2.28-2.67c2.37,1.32,3.93,2.37,6.03,4.02
		c1.26-1.83,2.52-4.5,3.36-7.08l-9.33,0.09c-1.65,2.82-4.29,5.82-7.02,8.07c-0.93-1.08-1.5-1.53-3-2.4c3.06-2.25,5.76-5.31,7.5-8.58
		c1.02-1.89,1.53-3.06,1.77-4.17l3.9,0.87c-0.33,0.57-0.36,0.6-0.9,1.71c-0.51,1.05-0.57,1.17-0.72,1.44
		c0.3-0.03,0.39-0.03,0.84-0.06h0.72l6.24-0.06c0.63-0.03,1.32-0.06,1.65-0.12c-0.69-1.35-1.23-2.19-2.16-3.39l2.31-0.69
		c1.23,1.56,1.95,2.76,2.76,4.65l-1.11,0.36L109.73,56.71z M111.62,54.64c-0.72-1.65-1.59-3.18-2.67-4.59l2.22-0.72
		c1.23,1.47,1.95,2.67,2.76,4.5L111.62,54.64z"/>
	<path d="M139.58,76.6c-2.49-3.06-5.94-6.42-9.21-8.91c-3.39,3.78-6.84,6.42-11.43,8.67c-0.84-1.56-1.2-2.04-2.43-3.33
		c2.31-0.9,3.75-1.71,6-3.3c4.53-3.18,8.13-7.53,10.08-12.21l0.33-0.78c-0.48,0.03-0.48,0.03-9.93,0.18
		c-1.44,0.03-2.25,0.09-3.27,0.24l-0.12-3.84c0.84,0.15,1.41,0.18,2.64,0.18c0.12,0,0.36,0,0.72,0l10.56-0.15
		c1.68-0.03,1.92-0.06,2.67-0.33l1.98,2.04c-0.39,0.45-0.63,0.87-0.96,1.62c-1.38,3.21-2.85,5.82-4.68,8.28
		c1.89,1.26,3.51,2.52,5.55,4.35c0.75,0.66,0.75,0.66,4.38,4.17L139.58,76.6z"/>
	<path d="M150.02,76.96c0.15-0.96,0.18-1.77,0.18-3.36V54.37c0-1.47-0.06-2.25-0.18-3.06h4.11c-0.12,0.9-0.12,1.29-0.12,3.15v5.58
		c4.11,1.44,8.82,3.63,13.62,6.33l-2.1,3.54c-2.49-1.71-5.61-3.42-10.62-5.73c-0.69-0.33-0.78-0.36-1.02-0.51
		c0.09,0.84,0.12,1.2,0.12,2.04v7.92c0,1.56,0.03,2.34,0.12,3.33H150.02z"/>
	<path d="M179.3,51.97c-0.12,0.84-0.12,1.11-0.12,2.7v8.28c0,1.5,0,1.89,0.12,2.64h-4.11c0.09-0.69,0.15-1.62,0.15-2.7v-8.25
		c0-1.53-0.03-1.92-0.12-2.7L179.3,51.97z M192.92,52c-0.12,0.75-0.15,1.08-0.15,2.79v4.05c-0.03,4.68-0.24,7.2-0.78,9.09
		c-0.87,3-2.79,5.25-5.91,6.99c-1.59,0.9-3.09,1.5-5.85,2.31c-0.54-1.47-0.84-1.98-2.1-3.57c2.94-0.57,4.68-1.2,6.48-2.4
		c2.82-1.86,3.81-3.69,4.14-7.65c0.12-1.29,0.15-2.61,0.15-5.01v-3.75c0-1.53-0.03-2.16-0.15-2.85H192.92z"/>
	<path d="M212.78,58.72c-0.09,0.57-0.09,0.6-0.12,2.43c-0.12,5.13-0.93,8.01-2.97,10.62c-1.8,2.31-3.99,3.84-7.74,5.4
		c-0.78-1.62-1.17-2.16-2.37-3.42c2.43-0.72,3.78-1.38,5.25-2.55c3.06-2.43,4.02-5.01,4.02-10.68c0-0.9-0.03-1.17-0.15-1.8H212.78z
		 M224.96,54.94c-0.42,0.51-0.42,0.54-1.2,2.1c-1.05,2.22-2.79,4.47-4.62,6.03c-1.2,1.05-2.19,1.71-3.6,2.49
		c-0.9-1.26-1.35-1.71-2.7-2.73c2.01-0.9,3.15-1.59,4.38-2.76c1.23-1.14,2.16-2.37,2.85-3.81h-15.75c-2.1,0-2.85,0.03-4.08,0.18
		v-3.75c1.14,0.18,2.07,0.24,4.14,0.24h15.66c1.8,0,2.07-0.03,2.91-0.27L224.96,54.94z"/>
	<path d="M236.42,52.36c-0.12,0.84-0.12,0.84-0.3,6.72c-0.21,5.85-0.87,9.24-2.43,12.33c-1.02,2.07-2.16,3.6-4.14,5.55
		c-1.17-1.5-1.62-1.95-3.03-2.91c1.47-1.2,2.19-2.01,3.09-3.45c2.16-3.45,2.85-7.32,2.85-15.72c0-1.65,0-1.92-0.12-2.73
		L236.42,52.36z M244.37,52c-0.15,0.87-0.18,1.38-0.21,2.85l-0.15,17.07c2.1-0.99,3.3-1.89,4.59-3.42c1.38-1.62,2.25-3.27,2.94-5.49
		c1.05,1.35,1.44,1.74,2.82,2.82c-1.23,2.97-2.79,5.22-4.77,6.99c-1.71,1.47-3.27,2.37-6.39,3.6c-0.66,0.24-0.9,0.36-1.29,0.54
		l-1.92-2.04c0.21-0.87,0.24-1.53,0.27-3.18l0.15-16.92v-0.9c0-0.75-0.03-1.41-0.12-1.98L244.37,52z"/>
	<path d="M269.78,58.72c-0.09,0.57-0.09,0.6-0.12,2.43c-0.12,5.13-0.93,8.01-2.97,10.62c-1.8,2.31-3.99,3.84-7.74,5.4
		c-0.78-1.62-1.17-2.16-2.37-3.42c2.43-0.72,3.78-1.38,5.25-2.55c3.06-2.43,4.02-5.01,4.02-10.68c0-0.9-0.03-1.17-0.15-1.8H269.78z
		 M281.96,54.94c-0.42,0.51-0.42,0.54-1.2,2.1c-1.05,2.22-2.79,4.47-4.62,6.03c-1.2,1.05-2.19,1.71-3.6,2.49
		c-0.9-1.26-1.35-1.71-2.7-2.73c2.01-0.9,3.15-1.59,4.38-2.76c1.23-1.14,2.16-2.37,2.85-3.81h-15.75c-2.1,0-2.85,0.03-4.08,0.18
		v-3.75c1.14,0.18,2.07,0.24,4.14,0.24h15.66c1.8,0,2.07-0.03,2.91-0.27L281.96,54.94z"/>
	<path d="M285.35,62.02c1.32,0.18,1.89,0.21,4.86,0.21h15.99c2.97,0,3.54-0.03,4.86-0.21v4.17c-1.2-0.15-1.53-0.15-4.89-0.15h-15.93
		c-3.36,0-3.69,0-4.89,0.15V62.02z"/>
	<path d="M319.79,76.96c0.15-0.96,0.18-1.77,0.18-3.36V54.37c0-1.47-0.06-2.25-0.18-3.06h4.11c-0.12,0.9-0.12,1.29-0.12,3.15v5.58
		c4.11,1.44,8.82,3.63,13.62,6.33l-2.1,3.54c-2.49-1.71-5.61-3.42-10.62-5.73c-0.69-0.33-0.78-0.36-1.02-0.51
		c0.09,0.84,0.12,1.2,0.12,2.04v7.92c0,1.56,0.03,2.34,0.12,3.33H319.79z"/>
	<path d="M346.46,69.82c-1.56,0-2.73,0.06-3.66,0.18v-3.33c1.02,0.15,2.22,0.21,3.63,0.21h8.16v-0.21c0-0.6-0.03-1.14-0.09-1.65
		h1.29c1.29-0.66,2.28-1.32,3.54-2.43h-8.25c-1.23,0-2.04,0.03-3,0.12v-3c0.9,0.12,1.74,0.15,3.03,0.15h9.93
		c1.17,0,1.74-0.03,2.28-0.12l1.65,1.83c-0.51,0.42-0.51,0.42-1.08,0.9c-2.13,1.83-3.66,2.94-6,4.38v0.03h7.83
		c1.47,0,2.79-0.06,3.69-0.21V70c-0.87-0.12-2.16-0.18-3.72-0.18h-7.8v5.25c0,1.05-0.09,1.47-0.39,1.89
		c-0.51,0.75-1.53,0.99-4.23,0.99c-0.39,0-1.38-0.03-2.94-0.12c-0.33-1.59-0.48-2.1-0.99-3.18c1.44,0.21,2.79,0.3,3.72,0.3
		c1.32,0,1.53-0.09,1.53-0.69v-4.44H346.46z M348,55c-0.69-1.32-1.08-1.92-2.25-3.39l3.03-0.9c1.05,1.29,1.74,2.37,2.73,4.29h3.18
		c-0.51-1.41-0.99-2.46-1.83-3.78l3.12-0.87c1.23,2.31,1.41,2.73,2.07,4.65h2.55c0.9-1.2,1.95-3.09,2.46-4.5l3.24,0.9
		c-0.69,1.29-1.56,2.67-2.25,3.6h1.35c2.04,0,2.61-0.03,3.69-0.12c-0.09,0.75-0.12,1.35-0.12,2.49v2.79c0,0.81,0.06,1.56,0.15,2.28
		h-3.27v-4.65h-19.56v4.65h-3.27c0.12-0.69,0.15-1.38,0.15-2.31v-2.76c0-1.08-0.03-1.71-0.12-2.49c1.35,0.12,1.53,0.12,3.54,0.12
		H348z"/>
	<path d="M378.92,55.27c-1.23,0.24-1.74,0.3-3.51,0.54c-0.3-1.23-0.51-1.77-1.14-2.88c4.86-0.51,8.43-1.38,10.23-2.55l1.86,2.76
		c-0.12,0.03-0.12,0.03-0.48,0.21c-0.81,0.33-2.28,0.81-3.78,1.23v3.69h1.65c1.02,0,1.59-0.03,2.22-0.15v3.21
		c-0.69-0.12-1.35-0.15-2.28-0.15h-1.44c0.84,1.71,2.1,3.15,4.14,4.68c-0.66,0.84-1.14,1.68-1.62,2.94
		c-1.47-1.59-2.07-2.46-2.82-4.11c0.06,0.75,0.09,2.07,0.15,3.9v5.88c0,1.71,0.03,2.55,0.18,3.69h-3.54
		c0.12-1.11,0.18-2.13,0.18-3.69v-4.86c0-0.69,0.03-1.56,0.18-3.81c-0.96,2.76-1.92,4.59-3.63,6.75c-0.66-1.56-0.87-1.95-1.77-3.12
		c1.38-1.41,2.34-2.82,3.39-4.86c0.6-1.14,1.17-2.52,1.44-3.39h-1.56c-1.08,0-1.77,0.03-2.64,0.18v-3.27
		c0.87,0.15,1.53,0.18,2.7,0.18h1.89V55.27z M395.24,54.01c0-1.74-0.03-2.55-0.18-3.48h3.63c-0.15,0.99-0.18,1.8-0.18,3.45v12.93
		c1.71-0.39,1.89-0.45,2.82-0.81l0.27,3.51c-0.81,0.09-1.68,0.24-2.85,0.51l-0.24,0.06v4.47c0,1.68,0.03,2.58,0.18,3.54h-3.63
		c0.15-1.02,0.18-1.74,0.18-3.57V70.9l-6.75,1.5c-1.17,0.27-2.16,0.54-2.91,0.75l-0.39-3.48c0.06,0,0.12,0,0.15,0
		c0.81-0.03,1.5-0.15,2.67-0.42l7.23-1.62V54.01z M387.92,59.68c2.67,1.89,3.75,2.79,5.67,4.65L391.7,67
		c-2.37-2.49-3.48-3.45-5.7-4.92L387.92,59.68z M388.94,52.18c2.91,1.98,4.14,2.97,5.79,4.71l-2.04,2.7
		c-1.92-2.16-3.21-3.3-5.67-4.95L388.94,52.18z"/>
	<path d="M432.71,50.11l-22.74,28.2h-4.41l22.71-28.2H432.71z"/>
	<path d="M440.96,69.82c-1.56,0-2.73,0.06-3.66,0.18v-3.33c1.02,0.15,2.22,0.21,3.63,0.21h8.16v-0.21c0-0.6-0.03-1.14-0.09-1.65
		h1.29c1.29-0.66,2.28-1.32,3.54-2.43h-8.25c-1.23,0-2.04,0.03-3,0.12v-3c0.9,0.12,1.74,0.15,3.03,0.15h9.93
		c1.17,0,1.74-0.03,2.28-0.12l1.65,1.83c-0.51,0.42-0.51,0.42-1.08,0.9c-2.13,1.83-3.66,2.94-6,4.38v0.03h7.83
		c1.47,0,2.79-0.06,3.69-0.21V70c-0.87-0.12-2.16-0.18-3.72-0.18h-7.8v5.25c0,1.05-0.09,1.47-0.39,1.89
		c-0.51,0.75-1.53,0.99-4.23,0.99c-0.39,0-1.38-0.03-2.94-0.12c-0.33-1.59-0.48-2.1-0.99-3.18c1.44,0.21,2.79,0.3,3.72,0.3
		c1.32,0,1.53-0.09,1.53-0.69v-4.44H440.96z M442.5,55c-0.69-1.32-1.08-1.92-2.25-3.39l3.03-0.9c1.05,1.29,1.74,2.37,2.73,4.29h3.18
		c-0.51-1.41-0.99-2.46-1.83-3.78l3.12-0.87c1.23,2.31,1.41,2.73,2.07,4.65h2.55c0.9-1.2,1.95-3.09,2.46-4.5l3.24,0.9
		c-0.69,1.29-1.56,2.67-2.25,3.6h1.35c2.04,0,2.61-0.03,3.69-0.12c-0.09,0.75-0.12,1.35-0.12,2.49v2.79c0,0.81,0.06,1.56,0.15,2.28
		h-3.27v-4.65h-19.56v4.65h-3.27c0.12-0.69,0.15-1.38,0.15-2.31v-2.76c0-1.08-0.03-1.71-0.12-2.49c1.35,0.12,1.53,0.12,3.54,0.12
		H442.5z"/>
	<path d="M495.53,61.03c-0.09,0.18-0.09,0.18-0.27,0.63c0,0.03-0.06,0.21-0.15,0.48c-1.05,3-2.19,5.52-3.39,7.59
		c0.78,2.28,1.53,4.08,1.74,4.08c0.24,0,0.51-1.65,0.69-3.78c0.9,1.02,1.38,1.41,2.34,1.95c-0.3,2.7-0.63,4.02-1.2,4.95
		c-0.39,0.63-0.93,0.99-1.53,0.99c-1.47,0-2.97-1.77-4.26-5.01c-1.74,2.13-3.51,3.66-6.03,5.25c-0.69-1.05-1.26-1.62-2.4-2.43
		c1.89-0.99,3.99-2.46,5.19-3.6c-1.56,0.51-3.87,1.11-7.29,1.8c-1.44,0.3-2.64,0.57-3.12,0.72l-0.51-3.12
		c-2.16,1.14-2.94,1.5-5.97,2.91c-0.27,0.15-0.39,0.21-0.69,0.39l-0.72-3.48c0.57-0.09,1.71-0.48,3.27-1.11v-8.7h-0.66
		c-0.87,0-1.47,0.03-2.19,0.12v-3.18c0.72,0.12,1.32,0.15,2.22,0.15h0.63v-4.44c0-1.53-0.06-2.4-0.18-3.36h3.45
		c-0.15,0.99-0.18,1.8-0.18,3.36v4.44h0.21c0.96,0,1.53-0.03,2.13-0.12v3.12c-0.63-0.06-1.17-0.09-2.1-0.09h-0.24v7.29
		c0.96-0.48,1.35-0.69,2.46-1.32v3.24c-0.51,0.3-0.66,0.39-1.08,0.6c2.85-0.24,6.48-0.93,10.74-2.04v2.64
		c0.72-0.78,1.2-1.38,1.95-2.46c-0.96-3.69-1.38-6.63-1.65-11.82h-6.99c-1.29,0-2.58,0.06-3.39,0.15v-3.33
		c0.78,0.12,2.01,0.18,3.48,0.18h6.78c-0.03-0.84-0.03-1.14-0.03-1.47c-0.03-1.26-0.06-1.83-0.18-2.64h3.45
		c-0.12,0.78-0.15,1.56-0.15,3.15c0,0.03-0.03,0.6-0.03,0.96h2.55c0.3,0,0.42,0,0.75,0c-1.05-1.23-1.65-1.77-3.03-2.7l1.95-1.5
		c1.35,0.84,1.8,1.2,3.15,2.55l-1.95,1.65c0.87-0.03,1.47-0.06,2.19-0.15v3.3c-0.84-0.09-2.04-0.15-3.3-0.15h-2.22
		c0.15,3.03,0.42,5.31,0.87,7.86c0.9-1.98,1.53-3.99,1.65-5.4L495.53,61.03z M477.62,61.51c0-0.6-0.06-1.44-0.09-1.89
		c0.3,0.06,1.23,0.09,1.95,0.09h4.59c0.57,0,1.26-0.03,1.71-0.09c-0.06,0.33-0.06,0.78-0.06,1.29v5.85c0,0.66,0.03,1.56,0.06,1.83
		c-0.54-0.06-1.17-0.09-1.89-0.09h-4.5c-0.75,0-1.5,0.03-1.86,0.09c0.06-0.63,0.09-1.14,0.09-1.83V61.51z M480.32,65.77h2.67v-3.36
		h-2.67V65.77z"/>
	<path d="M43.13,94.08c1.62,0.53,2.92,1.51,3.92,2.92c0.8,1.15,1.35,2.39,1.64,3.72c0.29,1.33,0.44,2.6,0.44,3.81
		c0,3.06-0.62,5.66-1.85,7.78c-1.67,2.87-4.24,4.3-7.73,4.3h-9.93V93.58h9.93C41,93.6,42.19,93.77,43.13,94.08z M34.31,97.58v15.03
		h4.44c2.27,0,3.86-1.12,4.76-3.36c0.49-1.23,0.74-2.69,0.74-4.39c0-2.34-0.37-4.14-1.1-5.4c-0.74-1.25-2.2-1.88-4.39-1.88H34.31z"
		/>
	<path d="M65.09,99.93c1.19,0.53,2.17,1.37,2.94,2.52c0.7,1.01,1.15,2.19,1.36,3.52c0.12,0.78,0.17,1.91,0.15,3.38h-12.4
		c0.07,1.71,0.66,2.91,1.78,3.59c0.68,0.43,1.5,0.64,2.46,0.64c1.01,0,1.84-0.26,2.47-0.78c0.35-0.28,0.65-0.67,0.92-1.17h4.55
		c-0.12,1.01-0.67,2.04-1.65,3.08c-1.53,1.66-3.66,2.48-6.41,2.48c-2.27,0-4.27-0.7-6-2.1c-1.73-1.4-2.6-3.67-2.6-6.82
		c0-2.95,0.78-5.21,2.35-6.79s3.59-2.36,6.09-2.36C62.56,99.13,63.9,99.39,65.09,99.93z M58.43,103.77
		c-0.63,0.65-1.02,1.53-1.19,2.64h7.67c-0.08-1.18-0.48-2.08-1.19-2.69c-0.71-0.61-1.59-0.92-2.64-0.92
		C59.94,102.8,59.06,103.12,58.43,103.77z"/>
	<path d="M87.71,101.41c1.39,1.47,2.08,3.62,2.08,6.47c0,3-0.68,5.29-2.04,6.86c-1.36,1.57-3.11,2.36-5.24,2.36
		c-1.36,0-2.5-0.34-3.4-1.02c-0.49-0.38-0.98-0.92-1.45-1.64v8.88h-4.41V99.58h4.27v2.52c0.48-0.74,1-1.32,1.54-1.75
		c1-0.76,2.18-1.14,3.55-1.14C84.62,99.21,86.32,99.94,87.71,101.41z M84.29,104.61c-0.6-1.01-1.59-1.52-2.94-1.52
		c-1.63,0-2.75,0.77-3.36,2.3c-0.32,0.81-0.47,1.84-0.47,3.09c0,1.98,0.53,3.37,1.59,4.17c0.63,0.47,1.38,0.7,2.24,0.7
		c1.25,0,2.21-0.48,2.87-1.44c0.66-0.96,0.99-2.23,0.99-3.83C85.2,106.79,84.9,105.62,84.29,104.61z"/>
	<path d="M101.28,106.25c0.83-0.1,1.42-0.23,1.78-0.39c0.64-0.27,0.96-0.69,0.96-1.27c0-0.7-0.25-1.18-0.74-1.45
		c-0.49-0.27-1.21-0.4-2.16-0.4c-1.07,0-1.82,0.26-2.26,0.78c-0.32,0.39-0.53,0.91-0.63,1.56h-4.3c0.09-1.49,0.51-2.71,1.26-3.67
		c1.18-1.5,3.21-2.25,6.09-2.25c1.87,0,3.54,0.37,4.99,1.11c1.45,0.74,2.18,2.14,2.18,4.19v7.81c0,0.54,0.01,1.2,0.03,1.97
		c0.03,0.58,0.12,0.98,0.27,1.19c0.15,0.21,0.36,0.38,0.66,0.52v0.66h-4.84c-0.14-0.34-0.23-0.67-0.28-0.97
		c-0.05-0.3-0.09-0.65-0.12-1.03c-0.62,0.67-1.33,1.23-2.14,1.7c-0.96,0.55-2.05,0.83-3.27,0.83c-1.55,0-2.83-0.44-3.84-1.32
		c-1.01-0.88-1.52-2.13-1.52-3.74c0-2.09,0.81-3.61,2.44-4.55c0.89-0.51,2.2-0.88,3.94-1.09L101.28,106.25z M104,108.33
		c-0.29,0.18-0.57,0.32-0.86,0.43c-0.29,0.11-0.69,0.21-1.2,0.3l-1.01,0.19c-0.95,0.17-1.63,0.37-2.05,0.61
		c-0.7,0.41-1.05,1.04-1.05,1.89c0,0.76,0.21,1.31,0.64,1.65c0.43,0.34,0.95,0.51,1.56,0.51c0.97,0,1.87-0.28,2.69-0.84
		s1.25-1.59,1.28-3.08V108.33z"/>
	<path d="M123.39,99.18c0.06,0.01,0.18,0.01,0.38,0.02v4.56c-0.28-0.03-0.53-0.05-0.75-0.06c-0.22-0.01-0.4-0.02-0.53-0.02
		c-1.79,0-3,0.58-3.61,1.75c-0.34,0.66-0.52,1.67-0.52,3.03v8.14h-4.48V99.58h4.25v2.97c0.69-1.13,1.29-1.91,1.8-2.33
		c0.83-0.7,1.92-1.05,3.25-1.05C123.26,99.18,123.33,99.18,123.39,99.18z"/>
	<path d="M126.23,102.91v-3.17h2.38v-4.75h4.41v4.75h2.77v3.17h-2.77v9c0,0.7,0.09,1.13,0.27,1.3c0.18,0.17,0.72,0.26,1.62,0.26
		c0.14,0,0.28,0,0.43-0.01c0.15,0,0.3-0.01,0.45-0.02v3.33l-2.11,0.08c-2.1,0.07-3.54-0.29-4.31-1.09c-0.5-0.51-0.75-1.3-0.75-2.36
		v-10.48H126.23z"/>
	<path d="M161.49,99.64c0.73,0.29,1.39,0.8,1.98,1.53c0.48,0.59,0.8,1.32,0.97,2.19c0.1,0.57,0.16,1.41,0.16,2.52l-0.03,10.73H160
		v-10.84c0-0.65-0.1-1.18-0.31-1.59c-0.4-0.79-1.12-1.19-2.19-1.19c-1.23,0-2.08,0.51-2.55,1.53c-0.24,0.54-0.36,1.19-0.36,1.95
		v10.14h-4.48v-10.14c0-1.01-0.1-1.74-0.31-2.2c-0.38-0.82-1.11-1.23-2.2-1.23c-1.27,0-2.12,0.41-2.56,1.23
		c-0.24,0.47-0.36,1.17-0.36,2.09v10.25h-4.52v-17h4.33v2.48c0.55-0.88,1.07-1.52,1.56-1.89c0.87-0.67,1.98-1,3.36-1
		c1.3,0,2.35,0.29,3.16,0.86c0.65,0.53,1.13,1.21,1.47,2.05c0.58-1,1.31-1.73,2.17-2.2c0.92-0.47,1.94-0.7,3.06-0.7
		C160.02,99.21,160.76,99.35,161.49,99.64z"/>
	<path d="M181.39,99.93c1.19,0.53,2.17,1.37,2.94,2.52c0.7,1.01,1.15,2.19,1.36,3.52c0.12,0.78,0.17,1.91,0.15,3.38h-12.4
		c0.07,1.71,0.66,2.91,1.78,3.59c0.68,0.43,1.5,0.64,2.46,0.64c1.01,0,1.84-0.26,2.47-0.78c0.35-0.28,0.65-0.67,0.92-1.17h4.55
		c-0.12,1.01-0.67,2.04-1.65,3.08c-1.53,1.66-3.66,2.48-6.41,2.48c-2.27,0-4.27-0.7-6-2.1c-1.73-1.4-2.6-3.67-2.6-6.82
		c0-2.95,0.78-5.21,2.35-6.79c1.56-1.57,3.59-2.36,6.09-2.36C178.87,99.13,180.2,99.39,181.39,99.93z M174.73,103.77
		c-0.63,0.65-1.02,1.53-1.19,2.64h7.67c-0.08-1.18-0.48-2.08-1.19-2.69c-0.71-0.61-1.59-0.92-2.64-0.92
		C176.24,102.8,175.36,103.12,174.73,103.77z"/>
	<path d="M203.42,100.56c1.12,0.92,1.67,2.45,1.67,4.59v11.47h-4.56v-10.36c0-0.9-0.12-1.58-0.36-2.06
		c-0.43-0.88-1.26-1.31-2.48-1.31c-1.5,0-2.53,0.64-3.09,1.92c-0.29,0.68-0.43,1.54-0.43,2.59v9.22h-4.45v-17h4.31v2.48
		c0.57-0.88,1.11-1.5,1.62-1.89c0.91-0.69,2.07-1.03,3.47-1.03C200.87,99.18,202.31,99.64,203.42,100.56z"/>
	<path d="M209.09,102.91v-3.17h2.38v-4.75h4.41v4.75h2.77v3.17h-2.77v9c0,0.7,0.09,1.13,0.27,1.3c0.18,0.17,0.72,0.26,1.62,0.26
		c0.13,0,0.28,0,0.43-0.01c0.15,0,0.3-0.01,0.45-0.02v3.33l-2.11,0.08c-2.1,0.07-3.54-0.29-4.31-1.09c-0.5-0.51-0.75-1.3-0.75-2.36
		v-10.48H209.09z"/>
	<path d="M247.79,114.53c-1.44,1.78-3.62,2.66-6.55,2.66c-2.93,0-5.11-0.89-6.55-2.66c-1.44-1.77-2.16-3.91-2.16-6.41
		c0-2.46,0.72-4.58,2.16-6.38s3.62-2.7,6.55-2.7c2.93,0,5.11,0.9,6.55,2.7s2.16,3.93,2.16,6.38
		C249.94,110.62,249.22,112.76,247.79,114.53z M244.22,112.07c0.7-0.93,1.05-2.24,1.05-3.95s-0.35-3.02-1.05-3.94
		c-0.7-0.92-1.7-1.38-3-1.38c-1.3,0-2.3,0.46-3.01,1.38s-1.05,2.23-1.05,3.94s0.35,3.02,1.05,3.95s1.71,1.39,3.01,1.39
		C242.53,113.46,243.53,112.99,244.22,112.07z"/>
	<path d="M261.78,93.37c0.23,0.02,0.54,0.04,0.94,0.07v3.62c-0.25-0.03-0.67-0.05-1.26-0.07c-0.59-0.02-1,0.12-1.22,0.39
		c-0.22,0.28-0.34,0.58-0.34,0.91c0,0.33,0,0.81,0,1.44h2.92v3.14h-2.92v13.73h-4.42v-13.73h-2.5v-3.14h2.44v-1.09
		c0-1.82,0.31-3.08,0.92-3.77c0.65-1.02,2.2-1.53,4.67-1.53C261.29,93.35,261.55,93.36,261.78,93.37z"/>
	<path d="M282.23,116.61h-4.78V93.58h4.78V116.61z"/>
	<path d="M301.7,100.56c1.12,0.92,1.67,2.45,1.67,4.59v11.47h-4.56v-10.36c0-0.9-0.12-1.58-0.36-2.06
		c-0.43-0.88-1.26-1.31-2.48-1.31c-1.5,0-2.53,0.64-3.09,1.92c-0.29,0.68-0.43,1.54-0.43,2.59v9.22H288v-17h4.31v2.48
		c0.57-0.88,1.11-1.5,1.62-1.89c0.91-0.69,2.07-1.03,3.47-1.03C299.15,99.18,300.59,99.64,301.7,100.56z"/>
	<path d="M318.15,99.86c0.8,0.45,1.45,1.08,1.95,1.88v-8.12h4.52v23h-4.33v-2.36c-0.64,1.01-1.36,1.75-2.17,2.2
		s-1.82,0.69-3.03,0.69c-1.99,0-3.66-0.8-5.02-2.41s-2.04-3.67-2.04-6.2c0-2.91,0.67-5.19,2.01-6.86c1.34-1.67,3.13-2.5,5.37-2.5
		C316.43,99.18,317.34,99.4,318.15,99.86z M319.24,111.99c0.66-0.94,0.98-2.15,0.98-3.64c0-2.08-0.53-3.57-1.58-4.47
		c-0.65-0.54-1.4-0.81-2.25-0.81c-1.3,0-2.26,0.49-2.87,1.48s-0.91,2.21-0.91,3.66c0,1.57,0.31,2.83,0.93,3.77
		c0.62,0.94,1.56,1.41,2.82,1.41C317.62,113.39,318.58,112.93,319.24,111.99z"/>
	<path d="M334.7,99.58v10.27c0,0.97,0.11,1.7,0.34,2.19c0.4,0.87,1.2,1.3,2.38,1.3c1.51,0,2.55-0.61,3.11-1.84
		c0.29-0.67,0.44-1.55,0.44-2.64v-9.27h4.52v17.03h-4.33v-2.41c-0.04,0.05-0.15,0.21-0.31,0.47c-0.17,0.26-0.36,0.49-0.59,0.69
		c-0.7,0.62-1.37,1.05-2.02,1.28c-0.65,0.23-1.41,0.34-2.28,0.34c-2.51,0-4.21-0.91-5.08-2.72c-0.49-1-0.73-2.47-0.73-4.42V99.58
		H334.7z"/>
	<path d="M354.86,111.18c0.09,0.79,0.3,1.35,0.61,1.69c0.55,0.59,1.58,0.89,3.08,0.89c0.88,0,1.58-0.13,2.1-0.39
		c0.52-0.26,0.78-0.65,0.78-1.17c0-0.5-0.21-0.88-0.63-1.14c-0.42-0.26-1.97-0.71-4.66-1.34c-1.93-0.48-3.3-1.08-4.09-1.8
		c-0.79-0.71-1.19-1.73-1.19-3.06c0-1.57,0.62-2.92,1.86-4.05c1.24-1.13,2.98-1.7,5.22-1.7c2.13,0,3.86,0.42,5.21,1.27
		c1.34,0.85,2.11,2.32,2.31,4.4H361c-0.06-0.57-0.22-1.03-0.49-1.36c-0.49-0.6-1.33-0.91-2.51-0.91c-0.97,0-1.66,0.15-2.08,0.45
		c-0.41,0.3-0.62,0.66-0.62,1.06c0,0.51,0.22,0.88,0.66,1.11c0.44,0.24,1.99,0.65,4.65,1.23c1.77,0.42,3.1,1.05,3.99,1.89
		c0.88,0.85,1.31,1.92,1.31,3.2c0,1.69-0.63,3.07-1.89,4.13s-3.2,1.6-5.83,1.6c-2.68,0-4.66-0.57-5.94-1.7
		c-1.28-1.13-1.92-2.57-1.92-4.32H354.86z"/>
	<path d="M369.06,102.91v-3.17h2.38v-4.75h4.41v4.75h2.77v3.17h-2.77v9c0,0.7,0.09,1.13,0.27,1.3c0.18,0.17,0.72,0.26,1.62,0.26
		c0.13,0,0.28,0,0.43-0.01c0.15,0,0.3-0.01,0.45-0.02v3.33l-2.11,0.08c-2.1,0.07-3.54-0.29-4.31-1.09c-0.5-0.51-0.75-1.3-0.75-2.36
		v-10.48H369.06z"/>
	<path d="M392.52,99.18c0.06,0.01,0.18,0.01,0.38,0.02v4.56c-0.28-0.03-0.53-0.05-0.75-0.06c-0.22-0.01-0.4-0.02-0.53-0.02
		c-1.79,0-3,0.58-3.61,1.75c-0.34,0.66-0.52,1.67-0.52,3.03v8.14h-4.48V99.58h4.25v2.97c0.69-1.13,1.29-1.91,1.8-2.33
		c0.83-0.7,1.92-1.05,3.25-1.05C392.39,99.18,392.46,99.18,392.52,99.18z"/>
	<path d="M401.69,97.55h-4.52v-4.11h4.52V97.55z M397.18,99.58h4.52v17.03h-4.52V99.58z"/>
	<path d="M414.35,106.25c0.83-0.1,1.42-0.23,1.78-0.39c0.64-0.27,0.96-0.69,0.96-1.27c0-0.7-0.25-1.18-0.74-1.45
		c-0.49-0.27-1.21-0.4-2.16-0.4c-1.07,0-1.82,0.26-2.26,0.78c-0.32,0.39-0.53,0.91-0.63,1.56H407c0.09-1.49,0.51-2.71,1.26-3.67
		c1.18-1.5,3.21-2.25,6.09-2.25c1.87,0,3.54,0.37,4.99,1.11c1.46,0.74,2.18,2.14,2.18,4.19v7.81c0,0.54,0.01,1.2,0.03,1.97
		c0.03,0.58,0.12,0.98,0.27,1.19c0.15,0.21,0.36,0.38,0.66,0.52v0.66h-4.84c-0.14-0.34-0.23-0.67-0.28-0.97
		c-0.05-0.3-0.09-0.65-0.12-1.03c-0.62,0.67-1.33,1.23-2.14,1.7c-0.96,0.55-2.05,0.83-3.27,0.83c-1.55,0-2.83-0.44-3.84-1.32
		s-1.52-2.13-1.52-3.74c0-2.09,0.81-3.61,2.44-4.55c0.89-0.51,2.2-0.88,3.94-1.09L414.35,106.25z M417.07,108.33
		c-0.29,0.18-0.57,0.32-0.86,0.43c-0.29,0.11-0.69,0.21-1.2,0.3l-1.01,0.19c-0.95,0.17-1.63,0.37-2.05,0.61
		c-0.7,0.41-1.05,1.04-1.05,1.89c0,0.76,0.21,1.31,0.64,1.65c0.43,0.34,0.95,0.51,1.56,0.51c0.97,0,1.87-0.28,2.69-0.84
		s1.25-1.59,1.28-3.08V108.33z"/>
	<path d="M431.55,116.61h-4.45V93.58h4.45V116.61z"/>
	<path d="M453.76,93.58h5.45l8.15,23.03h-5.22l-1.52-4.73h-8.48l-1.56,4.73h-5.03L453.76,93.58z M453.44,107.91h5.9l-2.91-9.06
		L453.44,107.91z"/>
	<path d="M480.98,99.18c0.06,0.01,0.18,0.01,0.38,0.02v4.56c-0.28-0.03-0.53-0.05-0.75-0.06c-0.22-0.01-0.4-0.02-0.53-0.02
		c-1.79,0-3,0.58-3.61,1.75c-0.34,0.66-0.52,1.67-0.52,3.03v8.14h-4.48V99.58h4.25v2.97c0.69-1.13,1.29-1.91,1.8-2.33
		c0.83-0.7,1.92-1.05,3.25-1.05C480.85,99.18,480.92,99.18,480.98,99.18z"/>
	<path d="M483.82,102.91v-3.17h2.38v-4.75h4.41v4.75h2.77v3.17h-2.77v9c0,0.7,0.09,1.13,0.27,1.3c0.18,0.17,0.72,0.26,1.62,0.26
		c0.13,0,0.28,0,0.43-0.01c0.15,0,0.3-0.01,0.45-0.02v3.33l-2.11,0.08c-2.1,0.07-3.54-0.29-4.31-1.09c-0.5-0.51-0.75-1.3-0.75-2.36
		v-10.48H483.82z"/>
</g>
</svg>
